<?xml version="1.0"?>
<svg xmlns="http://www.w3.org/2000/svg" xmlns:xlink="http://www.w3.org/1999/xlink" id="svg_id59db6732" version="1.1" shape-rendering="geometricPrecision" viewBox="0 0 512 512" width="250" height="250"> <rect class="icd_br" ry="22.39%" rx="22.39%" x="0" y="0" stroke-width="0" height="100%" width="100%" stroke="#A9A9A9" fill="transparent"/> <g fill="#1D1D1D"><svg xmlns:xlink="http://www.w3.org/1999/xlink" xmlns="http://www.w3.org/2000/svg" xml:space="preserve" viewBox="0 0 16 16" x="0%" y="0%" width="100%" height="100%" version="1.1" class="i_c_d">
 
 




	<path d="M8.5,1C4.358,1,1,4.358,1,8.5C1,12.643,4.358,16,8.5,16c4.143,0,7.5-3.357,7.5-7.5C16,4.358,12.643,1,8.5,1z M8.5,15   C4.916,15,2,12.084,2,8.5S4.916,2,8.5,2S15,4.916,15,8.5S12.084,15,8.5,15z"/>
	<path d="M11.268,5.025L8.52,7.774L6.054,5.025c-0.195-0.195-0.512-0.195-0.707,0c-0.195,0.195-0.195,0.512,0,0.707l2.466,2.749   l-2.787,2.787c-0.195,0.195-0.195,0.512,0,0.707c0.195,0.195,0.512,0.195,0.707,0l2.749-2.748l2.466,2.748   c0.194,0.195,0.512,0.195,0.706,0c0.195-0.195,0.195-0.512,0-0.707L9.188,8.52l2.787-2.788c0.195-0.195,0.195-0.512,0-0.707   C11.779,4.83,11.463,4.83,11.268,5.025z"/>



 </svg>
  </g> </svg>
