<?xml version="1.0"?>
<svg xmlns="http://www.w3.org/2000/svg" xmlns:xlink="http://www.w3.org/1999/xlink" id="svg_id4acab8bd" version="1.1" shape-rendering="geometricPrecision" viewBox="0 0 512 512" width="128" height="128"> <rect class="icd_br" ry="0" rx="0" x="0" y="0" stroke-width="0" height="100%" width="100%" stroke="#A9A9A9" fill="transparent"/> <g fill="#1D1D1D"><svg xmlns:xlink="http://www.w3.org/1999/xlink" xmlns="http://www.w3.org/2000/svg" xml:space="preserve" viewBox="0 0 100 80" x="0%" y="0%" width="100%" height="100%" version="1.1" class="i_c_d">
 
 




	<path d="M95.351,25H4.651c-4.604,0-4.834,2.241-4.584,4.979l4.127,45.041C4.444,77.759,5.093,80,9.69,80h80.621   c4.688,0,5.244-2.241,5.494-4.979l4.127-45.041C100.183,27.241,99.954,25,95.351,25z M92.022,14c-0.555-2.2-3.275-4-6.047-4H51.903   c-2.771,0-6.645-1.588-8.607-3.528l-2.979-2.943C38.354,1.588,34.481,0,31.71,0H15.431c-2.771,0-5.289,2.236-5.594,4.97L8.376,18   H93.03L92.022,14z"/>

































 </svg>
  </g> </svg>
