<?xml version="1.0"?>
<svg xmlns="http://www.w3.org/2000/svg" xmlns:xlink="http://www.w3.org/1999/xlink" id="svg_id344708ed" version="1.1" shape-rendering="geometricPrecision" viewBox="0 0 512 512" width="128" height="128"> <rect class="icd_br" ry="0" rx="0" x="0" y="0" stroke-width="0" height="100%" width="100%" stroke="#A9A9A9" fill="transparent"/> <g fill="#1D1D1D"><svg xmlns:xlink="http://www.w3.org/1999/xlink" xmlns="http://www.w3.org/2000/svg" xml:space="preserve" viewBox="0 0 512 512" x="0%" y="0%" width="100%" height="100%" version="1.1" class="i_c_d">
 
 



<path d="M510.187,238.063L439.749,432H53.124l72.75-194.031C132.061,221.5,151.53,208,169.124,208h320  C506.718,208,516.218,221.531,510.187,238.063z M31.03,399.813L95.936,226.75c10.813-28.938,42.281-50.75,73.188-50.75h278.875  c0-17.688-14.313-32-32-32h-224l-32-64h-128c-17.688,0-32,14.313-32,32v256C-0.001,385.344,13.811,399.25,31.03,399.813z"/>


 </svg>
  </g> </svg>
