<?xml version="1.0"?>
<svg xmlns="http://www.w3.org/2000/svg" xmlns:xlink="http://www.w3.org/1999/xlink" id="svg_idcc73dc73" version="1.1" shape-rendering="geometricPrecision" viewBox="0 0 512 512" width="128" height="128"> <rect class="icd_br" ry="0" rx="0" x="0" y="0" stroke-width="0" height="100%" width="100%" stroke="#A9A9A9" fill="transparent"/> <g fill="#1D1D1D"><svg xmlns:xlink="http://www.w3.org/1999/xlink" xmlns="http://www.w3.org/2000/svg" xml:space="preserve" viewBox="0 0 126 126" x="0%" y="0%" width="100%" height="100%" version="1.1" class="i_c_d">
 
 



<path d="M101.487,41.505h-2.449V29.687c0-0.074-0.012-0.148-0.021-0.223c-0.004-0.469-0.154-0.93-0.475-1.295L78.875,5.704  C78.87,5.698,78.864,5.696,78.86,5.69c-0.117-0.131-0.254-0.24-0.398-0.334c-0.043-0.029-0.086-0.053-0.131-0.078  c-0.125-0.068-0.258-0.125-0.395-0.166c-0.037-0.01-0.07-0.025-0.107-0.035c-0.148-0.035-0.303-0.057-0.459-0.057H29.038  c-2.207,0-4,1.795-4,4v32.484h-2.449c-3.157,0-5.717,2.559-5.717,5.717v29.73c0,3.156,2.56,5.717,5.717,5.717h2.449v20.352  c0,2.205,1.793,4,4,4h66c2.205,0,4-1.795,4-4V82.669h2.449c3.157,0,5.717-2.561,5.717-5.717v-29.73  C107.204,44.063,104.644,41.505,101.487,41.505z M29.038,9.021H75.37v20.465c0,1.105,0.896,2,2,2h17.668v10.02h-66V9.021z   M79.8,73.493h-5.657l-0.38-9.798c-0.114-3.075-0.228-6.797-0.228-10.517h-0.114c-0.798,3.264-1.86,6.91-2.848,9.908l-3.114,9.986  h-4.52l-2.733-9.91c-0.835-2.998-1.708-6.645-2.316-9.984h-0.076c-0.151,3.454-0.266,7.403-0.455,10.594l-0.457,9.721h-5.354  L53.182,47.9h7.708l2.506,8.542c0.797,2.963,1.595,6.152,2.165,9.15h0.114c0.721-2.96,1.595-6.342,2.431-9.188l2.734-8.505h7.556  L79.8,73.493z M28.807,73.493V47.9h5.734v11.313h0.114c0.57-0.987,1.177-1.897,1.747-2.809l5.81-8.505h7.101l-8.468,10.897  l8.922,14.695h-6.758l-6.266-11.052l-2.203,2.698v8.354H28.807z M95.038,101.937h-66V82.669h66V101.937z M100.226,73.493H84.239  V47.9h5.81v20.732h10.178V73.493z"/>


 </svg>
  </g> </svg>
