<?xml version="1.0"?>
<svg xmlns="http://www.w3.org/2000/svg" xmlns:xlink="http://www.w3.org/1999/xlink" id="svg_id80dc9454" version="1.1" shape-rendering="geometricPrecision" viewBox="0 0 512 512" width="250" height="250"> <rect class="icd_br" ry="22.39%" rx="22.39%" x="0" y="0" stroke-width="0" height="100%" width="100%" stroke="#A9A9A9" fill="transparent"/> <g fill="#1D1D1D"><svg xmlns:xlink="http://www.w3.org/1999/xlink" xmlns="http://www.w3.org/2000/svg" xml:space="preserve" viewBox="0 0 16 16" x="0%" y="0%" width="100%" height="100%" version="1.1" class="i_c_d">
 
 




	<path d="M8.536,1.071c-4.122,0-7.464,3.342-7.464,7.464C1.071,12.658,4.413,16,8.536,16C12.658,16,16,12.658,16,8.536   C16,4.413,12.658,1.071,8.536,1.071z M8.536,15c-3.564,0-6.464-2.9-6.464-6.464c0-3.564,2.9-6.464,6.464-6.464   C12.1,2.071,15,4.971,15,8.536C15,12.1,12.1,15,8.536,15z"/>
	<path d="M11.391,6.9L8.5,9.791L5.609,6.9c-0.195-0.195-0.512-0.195-0.707,0c-0.195,0.195-0.195,0.512,0,0.707l3.243,3.243   c0.098,0.099,0.227,0.147,0.355,0.146c0.129,0,0.257-0.048,0.355-0.146l3.242-3.243c0.195-0.195,0.195-0.512,0-0.707   C11.902,6.705,11.586,6.705,11.391,6.9z"/>



 </svg>
  </g> </svg>
