<?xml version="1.0"?>
<svg xmlns="http://www.w3.org/2000/svg" xmlns:xlink="http://www.w3.org/1999/xlink" id="svg_id38e56028" version="1.1" shape-rendering="geometricPrecision" viewBox="0 0 512 512" width="128" height="128"> <rect class="icd_br" ry="22.39%" rx="22.39%" x="0" y="0" stroke-width="0" height="100%" width="100%" stroke="#A9A9A9" fill="transparent"/> <g fill="#1D1D1D"><svg xmlns:xlink="http://www.w3.org/1999/xlink" xmlns="http://www.w3.org/2000/svg" xml:space="preserve" viewBox="0 0 26 26" x="0%" y="0%" width="100%" height="100%" version="1.1" class="i_c_d">
 
 




	<path d="M17.325,20.69h-8.65c-1.558,0-2.826-1.268-2.826-2.825v-9.73c0-1.558,1.268-2.826,2.826-2.826h8.65   c1.558,0,2.825,1.268,2.825,2.826v9.73C20.15,19.423,18.883,20.69,17.325,20.69z M8.675,6.614c-0.839,0-1.521,0.683-1.521,1.521   v9.73c0,0.838,0.683,1.521,1.521,1.521h8.65c0.839,0,1.521-0.684,1.521-1.521v-9.73c0-0.839-0.683-1.521-1.521-1.521H8.675z"/>



 </svg>
  </g> </svg>
